<mxfile host="Electron" modified="2024-01-15T18:47:53.229Z" agent="Mozilla/5.0 (Windows NT 10.0; Win64; x64) AppleWebKit/537.36 (KHTML, like Gecko) draw.io/22.0.3 Chrome/114.0.5735.289 Electron/25.8.4 Safari/537.36" etag="GPk9LYLFBgFcONXQjQi2" version="22.0.3" type="device">
  <diagram name="Page-1" id="Qm49Ly96IAzFYvibLxt6">
    <mxGraphModel dx="2033" dy="702" grid="1" gridSize="10" guides="1" tooltips="1" connect="1" arrows="1" fold="1" page="1" pageScale="1" pageWidth="827" pageHeight="1169" background="none" math="0" shadow="1">
      <root>
        <mxCell id="0" />
        <mxCell id="1" parent="0" />
        <mxCell id="2QvSDlSOdOQkuunxi8Gd-10" value="&lt;div style=&quot;box-sizing: border-box ; width: 100% ; padding: 2px&quot;&gt;&lt;br&gt;&lt;/div&gt;" style="verticalAlign=top;align=center;overflow=fill;html=1;rounded=0;shadow=0;comic=0;labelBackgroundColor=none;strokeColor=#000000;strokeWidth=1;fillColor=#ffffff;fontFamily=Verdana;fontSize=12;fontColor=#000000;" parent="1" vertex="1">
          <mxGeometry x="559" y="53.75" width="200" height="60" as="geometry" />
        </mxCell>
        <mxCell id="2QvSDlSOdOQkuunxi8Gd-11" value="Exercices" style="rounded=0;whiteSpace=wrap;html=1;" parent="1" vertex="1">
          <mxGeometry x="559" y="53.75" width="200" height="20" as="geometry" />
        </mxCell>
        <mxCell id="2QvSDlSOdOQkuunxi8Gd-24" value="&lt;div style=&quot;box-sizing: border-box ; width: 100% ; padding: 2px&quot;&gt;&lt;br&gt;&lt;/div&gt;" style="verticalAlign=top;align=center;overflow=fill;html=1;rounded=0;shadow=0;comic=0;labelBackgroundColor=none;strokeColor=#000000;strokeWidth=1;fillColor=#ffffff;fontFamily=Verdana;fontSize=12;fontColor=#000000;" parent="1" vertex="1">
          <mxGeometry x="-808" y="46.25" width="200" height="83.75" as="geometry" />
        </mxCell>
        <mxCell id="2QvSDlSOdOQkuunxi8Gd-25" value="Utilisateurs" style="rounded=0;whiteSpace=wrap;html=1;" parent="1" vertex="1">
          <mxGeometry x="-808" y="46.25" width="200" height="20" as="geometry" />
        </mxCell>
        <mxCell id="2QvSDlSOdOQkuunxi8Gd-26" value="&lt;u&gt;Pseudo&lt;/u&gt;&lt;br&gt;Mot de passe&lt;br&gt;Niveau" style="text;html=1;strokeColor=none;fillColor=none;align=left;verticalAlign=top;whiteSpace=wrap;rounded=0;" parent="1" vertex="1">
          <mxGeometry x="-797" y="66.25" width="99" height="23.75" as="geometry" />
        </mxCell>
        <mxCell id="2QvSDlSOdOQkuunxi8Gd-27" value="texte&lt;br&gt;texte&lt;br&gt;nombre" style="text;html=1;strokeColor=none;fillColor=none;align=left;verticalAlign=top;whiteSpace=wrap;rounded=0;" parent="1" vertex="1">
          <mxGeometry x="-708" y="66.25" width="100" height="23.75" as="geometry" />
        </mxCell>
        <mxCell id="2QvSDlSOdOQkuunxi8Gd-39" value="" style="shape=table;html=1;whiteSpace=wrap;startSize=0;container=1;collapsible=0;childLayout=tableLayout;" parent="1" vertex="1">
          <mxGeometry x="-810" y="230" width="320" height="110" as="geometry" />
        </mxCell>
        <mxCell id="2QvSDlSOdOQkuunxi8Gd-40" value="" style="shape=partialRectangle;html=1;whiteSpace=wrap;collapsible=0;dropTarget=0;pointerEvents=0;fillColor=none;top=0;left=0;bottom=0;right=0;points=[[0,0.5],[1,0.5]];portConstraint=eastwest;" parent="2QvSDlSOdOQkuunxi8Gd-39" vertex="1">
          <mxGeometry width="320" height="28" as="geometry" />
        </mxCell>
        <mxCell id="2QvSDlSOdOQkuunxi8Gd-41" value="Projet" style="shape=partialRectangle;html=1;whiteSpace=wrap;connectable=0;overflow=hidden;fillColor=none;top=0;left=0;bottom=0;right=0;" parent="2QvSDlSOdOQkuunxi8Gd-40" vertex="1">
          <mxGeometry width="100" height="28" as="geometry">
            <mxRectangle width="100" height="28" as="alternateBounds" />
          </mxGeometry>
        </mxCell>
        <mxCell id="2QvSDlSOdOQkuunxi8Gd-42" value="PythonDBPY" style="shape=partialRectangle;html=1;whiteSpace=wrap;connectable=0;overflow=hidden;fillColor=none;top=0;left=0;bottom=0;right=0;" parent="2QvSDlSOdOQkuunxi8Gd-40" vertex="1">
          <mxGeometry x="100" width="220" height="28" as="geometry">
            <mxRectangle width="220" height="28" as="alternateBounds" />
          </mxGeometry>
        </mxCell>
        <mxCell id="2QvSDlSOdOQkuunxi8Gd-43" value="" style="shape=partialRectangle;html=1;whiteSpace=wrap;collapsible=0;dropTarget=0;pointerEvents=0;fillColor=none;top=0;left=0;bottom=0;right=0;points=[[0,0.5],[1,0.5]];portConstraint=eastwest;" parent="2QvSDlSOdOQkuunxi8Gd-39" vertex="1">
          <mxGeometry y="28" width="320" height="27" as="geometry" />
        </mxCell>
        <mxCell id="2QvSDlSOdOQkuunxi8Gd-44" value="Titre" style="shape=partialRectangle;html=1;whiteSpace=wrap;connectable=0;overflow=hidden;fillColor=none;top=0;left=0;bottom=0;right=0;" parent="2QvSDlSOdOQkuunxi8Gd-43" vertex="1">
          <mxGeometry width="100" height="27" as="geometry">
            <mxRectangle width="100" height="27" as="alternateBounds" />
          </mxGeometry>
        </mxCell>
        <mxCell id="2QvSDlSOdOQkuunxi8Gd-45" value="MCD" style="shape=partialRectangle;html=1;whiteSpace=wrap;connectable=0;overflow=hidden;fillColor=none;top=0;left=0;bottom=0;right=0;" parent="2QvSDlSOdOQkuunxi8Gd-43" vertex="1">
          <mxGeometry x="100" width="220" height="27" as="geometry">
            <mxRectangle width="220" height="27" as="alternateBounds" />
          </mxGeometry>
        </mxCell>
        <mxCell id="2QvSDlSOdOQkuunxi8Gd-46" value="" style="shape=partialRectangle;html=1;whiteSpace=wrap;collapsible=0;dropTarget=0;pointerEvents=0;fillColor=none;top=0;left=0;bottom=0;right=0;points=[[0,0.5],[1,0.5]];portConstraint=eastwest;" parent="2QvSDlSOdOQkuunxi8Gd-39" vertex="1">
          <mxGeometry y="55" width="320" height="28" as="geometry" />
        </mxCell>
        <mxCell id="2QvSDlSOdOQkuunxi8Gd-47" value="Auteur" style="shape=partialRectangle;html=1;whiteSpace=wrap;connectable=0;overflow=hidden;fillColor=none;top=0;left=0;bottom=0;right=0;" parent="2QvSDlSOdOQkuunxi8Gd-46" vertex="1">
          <mxGeometry width="100" height="28" as="geometry">
            <mxRectangle width="100" height="28" as="alternateBounds" />
          </mxGeometry>
        </mxCell>
        <mxCell id="2QvSDlSOdOQkuunxi8Gd-48" value="Christophe" style="shape=partialRectangle;html=1;whiteSpace=wrap;connectable=0;overflow=hidden;fillColor=none;top=0;left=0;bottom=0;right=0;" parent="2QvSDlSOdOQkuunxi8Gd-46" vertex="1">
          <mxGeometry x="100" width="220" height="28" as="geometry">
            <mxRectangle width="220" height="28" as="alternateBounds" />
          </mxGeometry>
        </mxCell>
        <mxCell id="2QvSDlSOdOQkuunxi8Gd-49" value="" style="shape=partialRectangle;html=1;whiteSpace=wrap;collapsible=0;dropTarget=0;pointerEvents=0;fillColor=none;top=0;left=0;bottom=0;right=0;points=[[0,0.5],[1,0.5]];portConstraint=eastwest;" parent="2QvSDlSOdOQkuunxi8Gd-39" vertex="1">
          <mxGeometry y="83" width="320" height="27" as="geometry" />
        </mxCell>
        <mxCell id="2QvSDlSOdOQkuunxi8Gd-50" value="Version" style="shape=partialRectangle;html=1;whiteSpace=wrap;connectable=0;overflow=hidden;fillColor=none;top=0;left=0;bottom=0;right=0;" parent="2QvSDlSOdOQkuunxi8Gd-49" vertex="1">
          <mxGeometry width="100" height="27" as="geometry">
            <mxRectangle width="100" height="27" as="alternateBounds" />
          </mxGeometry>
        </mxCell>
        <mxCell id="2QvSDlSOdOQkuunxi8Gd-51" value="2" style="shape=partialRectangle;html=1;whiteSpace=wrap;connectable=0;overflow=hidden;fillColor=none;top=0;left=0;bottom=0;right=0;" parent="2QvSDlSOdOQkuunxi8Gd-49" vertex="1">
          <mxGeometry x="100" width="220" height="27" as="geometry">
            <mxRectangle width="220" height="27" as="alternateBounds" />
          </mxGeometry>
        </mxCell>
        <mxCell id="jb4O1xx5NTT1vo8NRB_P-6" value="&lt;u&gt;Nom&lt;/u&gt;" style="text;html=1;strokeColor=none;fillColor=none;align=left;verticalAlign=top;whiteSpace=wrap;rounded=0;" parent="1" vertex="1">
          <mxGeometry x="569" y="78.75" width="99" height="60" as="geometry" />
        </mxCell>
        <mxCell id="jb4O1xx5NTT1vo8NRB_P-7" value="texte" style="text;html=1;strokeColor=none;fillColor=none;align=left;verticalAlign=top;whiteSpace=wrap;rounded=0;" parent="1" vertex="1">
          <mxGeometry x="668" y="78.75" width="100" height="50" as="geometry" />
        </mxCell>
        <mxCell id="jb4O1xx5NTT1vo8NRB_P-17" value="&lt;div style=&quot;box-sizing: border-box ; width: 100% ; padding: 2px&quot;&gt;&lt;br&gt;&lt;/div&gt;" style="verticalAlign=top;align=center;overflow=fill;html=1;rounded=0;shadow=0;comic=0;labelBackgroundColor=none;strokeColor=#000000;strokeWidth=1;fillColor=#ffffff;fontFamily=Verdana;fontSize=12;fontColor=#000000;" parent="1" vertex="1">
          <mxGeometry x="-120" y="17.5" width="200" height="120" as="geometry" />
        </mxCell>
        <mxCell id="jb4O1xx5NTT1vo8NRB_P-18" value="Résultats" style="rounded=0;whiteSpace=wrap;html=1;" parent="1" vertex="1">
          <mxGeometry x="-120" y="17.5" width="200" height="20" as="geometry" />
        </mxCell>
        <mxCell id="jb4O1xx5NTT1vo8NRB_P-19" value="date heure début&lt;br&gt;temps&lt;br&gt;nb ok&lt;br&gt;nb total" style="text;html=1;strokeColor=none;fillColor=none;align=left;verticalAlign=top;whiteSpace=wrap;rounded=0;" parent="1" vertex="1">
          <mxGeometry x="-110" y="42.5" width="99" height="60" as="geometry" />
        </mxCell>
        <mxCell id="jb4O1xx5NTT1vo8NRB_P-20" value="date&lt;br&gt;temps&lt;br&gt;nombre&lt;br&gt;nombre" style="text;html=1;strokeColor=none;fillColor=none;align=left;verticalAlign=top;whiteSpace=wrap;rounded=0;" parent="1" vertex="1">
          <mxGeometry x="-11" y="42.5" width="81" height="50" as="geometry" />
        </mxCell>
        <mxCell id="jb4O1xx5NTT1vo8NRB_P-134" value="&lt;div style=&quot;box-sizing: border-box ; width: 100% ; padding: 2px&quot;&gt;&lt;br&gt;&lt;/div&gt;" style="verticalAlign=top;align=center;overflow=fill;html=1;rounded=1;shadow=0;comic=0;labelBackgroundColor=none;strokeColor=#000000;strokeWidth=1;fillColor=#ffffff;fontFamily=Verdana;fontSize=12;fontColor=#000000;" parent="1" vertex="1">
          <mxGeometry x="220" y="43.75" width="180" height="70" as="geometry" />
        </mxCell>
        <mxCell id="jb4O1xx5NTT1vo8NRB_P-135" value="avoir" style="text;html=1;strokeColor=none;fillColor=none;align=center;verticalAlign=middle;whiteSpace=wrap;rounded=0;" parent="1" vertex="1">
          <mxGeometry x="244" y="43.75" width="120" height="20" as="geometry" />
        </mxCell>
        <mxCell id="jb4O1xx5NTT1vo8NRB_P-136" value="" style="endArrow=none;html=1;entryX=1;entryY=0.25;entryDx=0;entryDy=0;exitX=0;exitY=0.25;exitDx=0;exitDy=0;" parent="1" edge="1">
          <mxGeometry width="50" height="50" relative="1" as="geometry">
            <mxPoint x="220" y="62.75" as="sourcePoint" />
            <mxPoint x="400" y="62.75" as="targetPoint" />
          </mxGeometry>
        </mxCell>
        <mxCell id="jb4O1xx5NTT1vo8NRB_P-137" style="edgeStyle=orthogonalEdgeStyle;html=1;labelBackgroundColor=none;startArrow=none;endArrow=none;fontFamily=Verdana;fontSize=12;align=left;startFill=0;endFill=0;rounded=0;entryX=0;entryY=0.5;entryDx=0;entryDy=0;" parent="1" edge="1">
          <mxGeometry relative="1" as="geometry">
            <mxPoint x="219" y="84.75" as="targetPoint" />
            <mxPoint x="79" y="83.75" as="sourcePoint" />
            <Array as="points" />
          </mxGeometry>
        </mxCell>
        <mxCell id="jb4O1xx5NTT1vo8NRB_P-138" value="1,1" style="text;html=1;resizable=0;points=[];align=center;verticalAlign=middle;labelBackgroundColor=#ffffff;direction=south;fontSize=16;" parent="jb4O1xx5NTT1vo8NRB_P-137" vertex="1" connectable="0">
          <mxGeometry x="-0.77" y="-1" relative="1" as="geometry">
            <mxPoint x="54" as="offset" />
          </mxGeometry>
        </mxCell>
        <mxCell id="jb4O1xx5NTT1vo8NRB_P-139" style="edgeStyle=orthogonalEdgeStyle;html=1;labelBackgroundColor=none;startArrow=none;endArrow=none;fontFamily=Verdana;fontSize=12;align=left;startFill=0;endFill=0;rounded=0;entryX=0.005;entryY=0.6;entryDx=0;entryDy=0;entryPerimeter=0;" parent="1" edge="1">
          <mxGeometry relative="1" as="geometry">
            <mxPoint x="561" y="82.75" as="targetPoint" />
            <mxPoint x="400" y="82.25" as="sourcePoint" />
            <Array as="points" />
          </mxGeometry>
        </mxCell>
        <mxCell id="jb4O1xx5NTT1vo8NRB_P-140" value="0,n" style="text;html=1;resizable=0;points=[];align=center;verticalAlign=middle;labelBackgroundColor=#ffffff;direction=south;fontSize=16;" parent="jb4O1xx5NTT1vo8NRB_P-139" vertex="1" connectable="0">
          <mxGeometry x="-0.77" y="-1" relative="1" as="geometry">
            <mxPoint x="71" as="offset" />
          </mxGeometry>
        </mxCell>
        <mxCell id="jb4O1xx5NTT1vo8NRB_P-141" value="&lt;div style=&quot;box-sizing: border-box ; width: 100% ; padding: 2px&quot;&gt;&lt;br&gt;&lt;/div&gt;" style="verticalAlign=top;align=center;overflow=fill;html=1;rounded=1;shadow=0;comic=0;labelBackgroundColor=none;strokeColor=#000000;strokeWidth=1;fillColor=#ffffff;fontFamily=Verdana;fontSize=12;fontColor=#000000;" parent="1" vertex="1">
          <mxGeometry x="-467" y="40" width="180" height="70" as="geometry" />
        </mxCell>
        <mxCell id="jb4O1xx5NTT1vo8NRB_P-142" value="obtenir" style="text;html=1;strokeColor=none;fillColor=none;align=center;verticalAlign=middle;whiteSpace=wrap;rounded=0;" parent="1" vertex="1">
          <mxGeometry x="-443" y="40" width="120" height="20" as="geometry" />
        </mxCell>
        <mxCell id="jb4O1xx5NTT1vo8NRB_P-143" value="" style="endArrow=none;html=1;entryX=1;entryY=0.25;entryDx=0;entryDy=0;exitX=0;exitY=0.25;exitDx=0;exitDy=0;" parent="1" edge="1">
          <mxGeometry width="50" height="50" relative="1" as="geometry">
            <mxPoint x="-467" y="59" as="sourcePoint" />
            <mxPoint x="-287" y="59" as="targetPoint" />
          </mxGeometry>
        </mxCell>
        <mxCell id="jb4O1xx5NTT1vo8NRB_P-144" style="edgeStyle=orthogonalEdgeStyle;html=1;labelBackgroundColor=none;startArrow=none;endArrow=none;fontFamily=Verdana;fontSize=12;align=left;startFill=0;endFill=0;rounded=0;entryX=0;entryY=0.5;entryDx=0;entryDy=0;" parent="1" edge="1">
          <mxGeometry relative="1" as="geometry">
            <mxPoint x="-468" y="81" as="targetPoint" />
            <mxPoint x="-608" y="80" as="sourcePoint" />
            <Array as="points" />
          </mxGeometry>
        </mxCell>
        <mxCell id="jb4O1xx5NTT1vo8NRB_P-145" value="1,n" style="text;html=1;resizable=0;points=[];align=center;verticalAlign=middle;labelBackgroundColor=#ffffff;direction=south;fontSize=16;" parent="jb4O1xx5NTT1vo8NRB_P-144" vertex="1" connectable="0">
          <mxGeometry x="-0.77" y="-1" relative="1" as="geometry">
            <mxPoint x="54" as="offset" />
          </mxGeometry>
        </mxCell>
        <mxCell id="jb4O1xx5NTT1vo8NRB_P-146" style="edgeStyle=orthogonalEdgeStyle;html=1;labelBackgroundColor=none;startArrow=none;endArrow=none;fontFamily=Verdana;fontSize=12;align=left;startFill=0;endFill=0;rounded=0;entryX=0;entryY=0.5;entryDx=0;entryDy=0;" parent="1" target="jb4O1xx5NTT1vo8NRB_P-17" edge="1">
          <mxGeometry relative="1" as="geometry">
            <mxPoint x="-126" y="79" as="targetPoint" />
            <mxPoint x="-287" y="78.5" as="sourcePoint" />
            <Array as="points" />
          </mxGeometry>
        </mxCell>
        <mxCell id="jb4O1xx5NTT1vo8NRB_P-147" value="1,1" style="text;html=1;resizable=0;points=[];align=center;verticalAlign=middle;labelBackgroundColor=#ffffff;direction=south;fontSize=16;" parent="jb4O1xx5NTT1vo8NRB_P-146" vertex="1" connectable="0">
          <mxGeometry x="-0.77" y="-1" relative="1" as="geometry">
            <mxPoint x="71" as="offset" />
          </mxGeometry>
        </mxCell>
      </root>
    </mxGraphModel>
  </diagram>
</mxfile>
